<mxfile host="app.diagrams.net" agent="Mozilla/5.0 (Windows NT 10.0; Win64; x64) AppleWebKit/537.36 (KHTML, like Gecko) Chrome/128.0.0.0 Safari/537.36" version="24.7.8">
  <diagram name="Page-1" id="W2shmPjRRlLV9HXesX0-">
    <mxGraphModel dx="1420" dy="672" grid="1" gridSize="10" guides="1" tooltips="1" connect="1" arrows="1" fold="1" page="1" pageScale="1" pageWidth="1400" pageHeight="850" math="0" shadow="0">
      <root>
        <mxCell id="0" />
        <mxCell id="1" parent="0" />
        <mxCell id="395yMRIsur3XalBiy9gK-12" value="" style="rounded=0;whiteSpace=wrap;html=1;" vertex="1" parent="1">
          <mxGeometry x="130" y="10" width="880" height="210" as="geometry" />
        </mxCell>
        <mxCell id="395yMRIsur3XalBiy9gK-11" value="" style="rounded=0;whiteSpace=wrap;html=1;" vertex="1" parent="1">
          <mxGeometry x="120" y="310" width="880" height="210" as="geometry" />
        </mxCell>
        <mxCell id="395yMRIsur3XalBiy9gK-1" value="VPC-PROD" style="outlineConnect=0;dashed=0;verticalLabelPosition=bottom;verticalAlign=top;align=center;html=1;shape=mxgraph.aws3.virtual_private_cloud;fillColor=#F58534;gradientColor=none;" vertex="1" parent="1">
          <mxGeometry x="160" y="10" width="79.5" height="54" as="geometry" />
        </mxCell>
        <mxCell id="395yMRIsur3XalBiy9gK-2" value="VPN-PROD" style="outlineConnect=0;dashed=0;verticalLabelPosition=bottom;verticalAlign=top;align=center;html=1;shape=mxgraph.aws3.vpn_connection;fillColor=#F58534;gradientColor=none;" vertex="1" parent="1">
          <mxGeometry x="880" y="20" width="80" height="66" as="geometry" />
        </mxCell>
        <mxCell id="395yMRIsur3XalBiy9gK-3" value="VPC-NONPROD" style="outlineConnect=0;dashed=0;verticalLabelPosition=bottom;verticalAlign=top;align=center;html=1;shape=mxgraph.aws3.virtual_private_cloud;fillColor=#F58534;gradientColor=none;" vertex="1" parent="1">
          <mxGeometry x="150" y="420" width="79.5" height="54" as="geometry" />
        </mxCell>
        <mxCell id="395yMRIsur3XalBiy9gK-5" value="" style="sketch=0;points=[[0,0,0],[0.25,0,0],[0.5,0,0],[0.75,0,0],[1,0,0],[0,1,0],[0.25,1,0],[0.5,1,0],[0.75,1,0],[1,1,0],[0,0.25,0],[0,0.5,0],[0,0.75,0],[1,0.25,0],[1,0.5,0],[1,0.75,0]];outlineConnect=0;fontColor=#232F3E;fillColor=#8C4FFF;strokeColor=#ffffff;dashed=0;verticalLabelPosition=bottom;verticalAlign=top;align=center;html=1;fontSize=12;fontStyle=0;aspect=fixed;shape=mxgraph.aws4.resourceIcon;resIcon=mxgraph.aws4.transit_gateway;" vertex="1" parent="1">
          <mxGeometry x="520" y="224" width="78" height="78" as="geometry" />
        </mxCell>
        <mxCell id="395yMRIsur3XalBiy9gK-6" value="attach-p1" style="sketch=0;outlineConnect=0;fontColor=#232F3E;gradientColor=none;fillColor=#8C4FFF;strokeColor=none;dashed=0;verticalLabelPosition=bottom;verticalAlign=top;align=center;html=1;fontSize=12;fontStyle=0;aspect=fixed;pointerEvents=1;shape=mxgraph.aws4.transit_gateway_attachment;" vertex="1" parent="1">
          <mxGeometry x="280" y="80" width="78" height="78" as="geometry" />
        </mxCell>
        <mxCell id="395yMRIsur3XalBiy9gK-7" value="attach-n1" style="sketch=0;outlineConnect=0;fontColor=#232F3E;gradientColor=none;fillColor=#8C4FFF;strokeColor=none;dashed=0;verticalLabelPosition=bottom;verticalAlign=top;align=center;html=1;fontSize=12;fontStyle=0;aspect=fixed;pointerEvents=1;shape=mxgraph.aws4.transit_gateway_attachment;" vertex="1" parent="1">
          <mxGeometry x="280" y="320" width="78" height="78" as="geometry" />
        </mxCell>
        <mxCell id="395yMRIsur3XalBiy9gK-8" value="attach-n2" style="sketch=0;outlineConnect=0;fontColor=#232F3E;gradientColor=none;fillColor=#8C4FFF;strokeColor=none;dashed=0;verticalLabelPosition=bottom;verticalAlign=top;align=center;html=1;fontSize=12;fontStyle=0;aspect=fixed;pointerEvents=1;shape=mxgraph.aws4.transit_gateway_attachment;" vertex="1" parent="1">
          <mxGeometry x="758" y="320" width="78" height="78" as="geometry" />
        </mxCell>
        <mxCell id="395yMRIsur3XalBiy9gK-9" value="attach-p2" style="sketch=0;outlineConnect=0;fontColor=#232F3E;gradientColor=none;fillColor=#8C4FFF;strokeColor=none;dashed=0;verticalLabelPosition=bottom;verticalAlign=top;align=center;html=1;fontSize=12;fontStyle=0;aspect=fixed;pointerEvents=1;shape=mxgraph.aws4.transit_gateway_attachment;" vertex="1" parent="1">
          <mxGeometry x="758" y="80" width="78" height="78" as="geometry" />
        </mxCell>
        <mxCell id="395yMRIsur3XalBiy9gK-10" value="VPC-NP-SIMULATION" style="outlineConnect=0;dashed=0;verticalLabelPosition=bottom;verticalAlign=top;align=center;html=1;shape=mxgraph.aws3.virtual_private_cloud;fillColor=#F58534;gradientColor=none;" vertex="1" parent="1">
          <mxGeometry x="880" y="420" width="79.5" height="54" as="geometry" />
        </mxCell>
        <mxCell id="395yMRIsur3XalBiy9gK-13" value="&lt;b&gt;NON PROD-SEGMENT&lt;/b&gt;" style="text;strokeColor=none;align=center;fillColor=none;html=1;verticalAlign=middle;whiteSpace=wrap;rounded=0;" vertex="1" parent="1">
          <mxGeometry x="500" y="380" width="80" height="30" as="geometry" />
        </mxCell>
        <mxCell id="395yMRIsur3XalBiy9gK-14" value="&lt;b&gt;PROD-SEGMENT&lt;/b&gt;" style="text;strokeColor=none;align=center;fillColor=none;html=1;verticalAlign=middle;whiteSpace=wrap;rounded=0;" vertex="1" parent="1">
          <mxGeometry x="520" y="104" width="60" height="30" as="geometry" />
        </mxCell>
        <mxCell id="395yMRIsur3XalBiy9gK-15" value="" style="endArrow=classic;startArrow=classic;html=1;rounded=0;exitX=0.93;exitY=0.93;exitDx=0;exitDy=0;exitPerimeter=0;" edge="1" parent="1" source="395yMRIsur3XalBiy9gK-1">
          <mxGeometry width="50" height="50" relative="1" as="geometry">
            <mxPoint x="670" y="290" as="sourcePoint" />
            <mxPoint x="880" y="56" as="targetPoint" />
          </mxGeometry>
        </mxCell>
        <mxCell id="395yMRIsur3XalBiy9gK-16" value="" style="endArrow=classic;startArrow=classic;html=1;rounded=0;exitX=0.93;exitY=0.93;exitDx=0;exitDy=0;exitPerimeter=0;" edge="1" parent="1">
          <mxGeometry width="50" height="50" relative="1" as="geometry">
            <mxPoint x="236" y="458" as="sourcePoint" />
            <mxPoint x="882" y="454" as="targetPoint" />
          </mxGeometry>
        </mxCell>
      </root>
    </mxGraphModel>
  </diagram>
</mxfile>
